<?xml version="1.0" encoding="utf-8"?>
<!-- Generator: Adobe Illustrator 18.0.0, SVG Export Plug-In . SVG Version: 6.00 Build 0)  -->
<!DOCTYPE svg PUBLIC "-//W3C//DTD SVG 1.1//EN" "http://www.w3.org/Graphics/SVG/1.1/DTD/svg11.dtd">
<svg version="1.1" id="Layer_1" xmlns="http://www.w3.org/2000/svg" xmlns:xlink="http://www.w3.org/1999/xlink" x="0px" y="0px"
	 viewBox="-15.8 -20 126.7 120" enable-background="new -15.8 -20 126.7 120" xml:space="preserve">
<polygon fill="#E6AF78" points="58.1,12.7 58.1,7.2 43.7,7.2 43.7,12.7 50.9,19.1 "/>
<path fill="#707487" d="M69.2,15.4L59.3,13c-0.1,0-0.3-0.1-0.4-0.2l-8,4.7l-7.7-4.9C43,12.8,42.7,13,42.4,13l-9.9,2.3
	c-1.4,0.3-2.5,1.6-2.5,3.1v6.3c0,0.9,0.7,1.6,1.6,1.6H70c0.9,0,1.6-0.7,1.6-1.6v-6.3C71.6,17,70.6,15.7,69.2,15.4z"/>
<path fill="#D29B6E" d="M43.7,7.2v5.9c9.1,3.3,14.4-4.9,14.4-4.9v-1H43.7z"/>
<path fill="#F0C087" d="M40.5-11.2l0.7,15.3c0.1,1.4,0.8,2.8,1.9,3.6l3.3,2.5c0.8,0.6,1.8,1,2.9,1h3.2c1,0,2-0.3,2.9-1l3.3-2.5
	c1.1-0.9,1.8-2.2,1.9-3.6l0.7-15.3H40.5z"/>
<path fill="#E6AF78" d="M48.5-8c3.2,0,8-0.8,9.1-3.2H40.5l0.7,15.3c0.1,1.4,0.8,2.8,1.9,3.6l3.3,2.5c0.8,0.6,1.8,1,2.9,1h1.6
	c-1.6,0-4.8-3.2-4.8-7.2c0-2,0-7.2,0-9.6C46.1-6.4,46.9-8,48.5-8z"/>
<g>
	<path fill="#5B5D6E" d="M65.8,21.1l5.2-4.6c0.4,0.5,0.7,1.2,0.7,2v6.3c0,0.9-0.7,1.6-1.6,1.6h-5.6v-2.2
		C64.4,23,64.9,21.9,65.8,21.1z"/>
	<path fill="#5B5D6E" d="M36,21.1l-5.2-4.6c-0.4,0.5-0.7,1.2-0.7,2v6.3c0,0.9,0.7,1.6,1.6,1.6h5.6v-2.2C37.3,23,36.8,21.9,36,21.1z"
		/>
	<polygon fill="#5B5D6E" points="52.9,26.3 48.9,26.3 49.4,19.1 52.4,19.1 	"/>
</g>
<path fill="#515262" d="M52.9,17.5h-4V18c0,1.1,0.9,1.9,1.9,1.9h0.1c1.1,0,1.9-0.9,1.9-1.9L52.9,17.5L52.9,17.5z"/>
<g>
	<path fill="#5B5D6E" d="M43.6,11l7.3,6.6c0,0-2,1-4.6,3.1c-0.5,0.4-1.3,0.3-1.6-0.4l-3.4-7.5l1.1-1.6C42.6,10.7,43.2,10.6,43.6,11z
		"/>
	<path fill="#5B5D6E" d="M58.2,11l-7.3,6.6c0,0,2,1,4.6,3.1c0.5,0.4,1.3,0.3,1.6-0.4l3.4-7.5l-1.1-1.6C59.1,10.7,58.5,10.6,58.2,11z
		"/>
</g>
<path fill="#785550" d="M55.7-16.5l0.7,5.3c3.4,0.7,3.9,6,4,7.6c0,0.3,0.1,0.5,0.3,0.8l1.3,2c0,0-0.4-3.3,1.6-5.6
	C63.6-6.4,64.3-19.7,55.7-16.5z"/>
<path fill="#F0C087" d="M62.8-1.2l-0.9,3.6c-0.1,0.4-0.5,0.7-0.9,0.7l0,0c-0.5,0-0.9-0.4-1-0.8l-0.5-3.7c-0.1-1,0.6-1.9,1.6-1.9h0
	C62.3-3.2,63.1-2.2,62.8-1.2z"/>
<path fill="#694B4B" d="M41.2-17.9l1.2,0.8c-5.3,3.9-4.3,10.7-4.3,10.7c1.6,1.6,1.6,5.6,1.6,5.6l1.6-1.6c0,0-0.6-4.6,2.4-6.4
	c2.8-1.6,5.2-0.8,7.7-0.8c6.7,0,8.6-2.5,8.2-5.6c-0.2-1.6-2.6-4.9-8.8-4.8C48.4-20,43.7-19.2,41.2-17.9z"/>
<path fill="#5A4146" d="M40.8-10.3c0,0-0.8-3.3,1.6-6.8c-5.3,3.9-4.3,10.7-4.3,10.7c1.6,1.6,1.6,5.6,1.6,5.6l1.6-1.6
	c0,0-0.6-4.6,2.4-6.4c2.8-1.6,5.2-0.8,7.7-0.8c1.1,0,2-0.1,2.9-0.2C49.1-9.6,46.1-13.5,40.8-10.3z"/>
<path fill="#E6AF78" d="M38.9-1.2l0.9,3.6c0.1,0.4,0.5,0.7,0.9,0.7l0,0c0.5,0,0.9-0.4,1-0.8l0.5-3.7c0.1-1-0.6-1.9-1.6-1.9h0
	C39.5-3.2,38.7-2.2,38.9-1.2z"/>
<path fill="#5B5D6E" d="M60.4,24.7h-4c-0.9,0-1.6,0.7-1.6,1.6l0,0H62l0,0C62,25.4,61.3,24.7,60.4,24.7z"/>
<polygon fill="#E6AF78" points="12.1,86.4 12.1,80.8 -2.3,80.8 -2.3,86.4 4.9,92.8 "/>
<path fill="#EFF2FA" d="M23.2,89l-9.9-2.3c-0.1,0-0.3-0.1-0.4-0.2l-8,4.7l-7.7-4.9c-0.2,0.2-0.4,0.3-0.7,0.4l-9.9,2.3
	c-1.4,0.3-2.5,1.6-2.5,3.1v6.3c0,0.9,0.7,1.6,1.6,1.6h38.3c0.9,0,1.6-0.7,1.6-1.6v-6.3C25.7,90.6,24.7,89.3,23.2,89z"/>
<path fill="#D29B6E" d="M-2.3,80.8v5.9c9.1,3.3,14.4-4.9,14.4-4.9v-1L-2.3,80.8L-2.3,80.8z"/>
<path fill="#F0C087" d="M-5.5,62.4l0.7,15.3c0.1,1.4,0.8,2.8,1.9,3.6l3.3,2.5c0.8,0.6,1.8,1,2.9,1h3.2c1,0,2-0.3,2.9-1l3.3-2.5
	c1.1-0.9,1.8-2.2,1.9-3.6l0.7-15.3C15.3,62.4-5.5,62.4-5.5,62.4z"/>
<path fill="#E6AF78" d="M2.5,65.6c3.2,0,8-0.8,9.1-3.2H-5.5l0.7,15.3c0.1,1.4,0.8,2.8,1.9,3.6l3.3,2.5c0.8,0.6,1.8,1,2.9,1h1.6
	c-1.6,0-4.8-3.2-4.8-7.2c0-2,0-7.2,0-9.6C0.1,67.2,0.9,65.6,2.5,65.6z"/>
<g>
	<path fill="#E4EAF6" d="M19.8,94.8l5.2-4.6c0.4,0.5,0.7,1.2,0.7,2v6.3c0,0.9-0.7,1.6-1.6,1.6h-5.6v-2.2
		C18.5,96.6,19,95.5,19.8,94.8z"/>
	<path fill="#E4EAF6" d="M-10,94.8l-5.2-4.6c-0.4,0.5-0.7,1.2-0.7,2v6.3c0,0.9,0.7,1.6,1.6,1.6h5.6v-2.2C-8.7,96.6-9.1,95.5-10,94.8
		z"/>
</g>
<polygon fill="#5B5D6E" points="6.9,100 2.9,100 3.4,92.8 6.4,92.8 "/>
<path fill="#515262" d="M6.9,91.2h-4v0.5c0,1.1,0.9,1.9,1.9,1.9H5c1.1,0,1.9-0.9,1.9-1.9L6.9,91.2L6.9,91.2z"/>
<g>
	<path fill="#E4EAF6" d="M-2.4,84.6l7.3,6.6c0,0-2,1-4.6,3.1c-0.5,0.4-1.3,0.3-1.6-0.4l-3.4-7.5l1.1-1.6
		C-3.3,84.3-2.7,84.3-2.4,84.6z"/>
	<path fill="#E4EAF6" d="M12.2,84.6l-7.3,6.6c0,0,2,1,4.6,3.1c0.5,0.4,1.3,0.3,1.6-0.4l3.4-7.5l-1.1-1.6
		C13.1,84.3,12.6,84.3,12.2,84.6z"/>
</g>
<path fill="#785550" d="M9.8,57.1l0.7,5.3c3.4,0.7,3.9,6,4,7.6c0,0.3,0.1,0.5,0.3,0.8l1.3,2c0,0-0.4-3.3,1.6-5.6
	C17.6,67.2,18.3,53.9,9.8,57.1z"/>
<path fill="#F0C087" d="M16.8,72.5l-0.9,3.6c-0.1,0.4-0.5,0.7-0.9,0.7l0,0c-0.5,0-0.9-0.4-1-0.8l-0.5-3.7c-0.1-1,0.6-1.9,1.6-1.9h0
	C16.3,70.4,17.1,71.4,16.8,72.5z"/>
<path fill="#694B4B" d="M-4.7,55.7l1.2,0.8c-5.3,3.9-4.3,10.7-4.3,10.7c1.6,1.6,1.6,5.6,1.6,5.6l1.6-1.6c0,0-0.6-4.6,2.4-6.4
	C0.5,63.2,3,64,5.5,64c6.7,0,8.6-2.5,8.2-5.6c-0.2-1.6-2.6-4.9-8.8-4.8C2.4,53.7-2.3,54.4-4.7,55.7z"/>
<path fill="#5A4146" d="M-5.2,63.3c0,0-0.8-3.3,1.6-6.8c-5.3,3.9-4.3,10.7-4.3,10.7c1.6,1.6,1.6,5.6,1.6,5.6l1.6-1.6
	c0,0-0.6-4.6,2.4-6.4C0.5,63.2,3,64,5.5,64c1.1,0,2-0.1,2.9-0.2C3.2,64,0.2,60.1-5.2,63.3z"/>
<path fill="#E6AF78" d="M-7,72.5l0.9,3.6c0.1,0.4,0.5,0.7,0.9,0.7l0,0c0.5,0,0.9-0.4,1-0.8l0.5-3.7c0.1-1-0.6-1.9-1.6-1.9h0
	C-6.5,70.4-7.3,71.4-7,72.5z"/>
<path fill="#E4EAF6" d="M14.5,98.4h-4c-0.9,0-1.6,0.7-1.6,1.6l0,0h7.2l0,0C16.1,99.1,15.4,98.4,14.5,98.4z"/>
<path fill="#694B4B" d="M93.5,54.2c-16.1,0-14.3,19.6-14.2,33.8c0,0.5,0.3,1,0.7,1.3c1.8,1.1,6.7,3.6,13.5,3.6
	c6.8,0,11.7-2.5,13.5-3.6c0.5-0.3,0.7-0.8,0.7-1.3C107.9,73.8,109.7,54.2,93.5,54.2z"/>
<path fill="#5A4146" d="M92.5,54.2c-15,0.8-13.3,19.9-13.2,33.7c0,0.5,0.3,1,0.7,1.3c1.8,1.1,6.7,3.6,13.5,3.6l4.1-28.5"/>
<path fill="#694B4B" d="M93.5,54.2c-9.2,0-9.8,11.1-9.8,11.1c5.3-0.9,8.5,1.3,13.9-0.9l-4.1,28.5c6.8,0,11.7-2.5,13.5-3.6
	c0.5-0.3,0.7-0.8,0.7-1.3C107.9,73.8,109.7,54.2,93.5,54.2z"/>
<path fill="#785550" d="M107.8,88c0.1-12.2,1.4-28.4-8.5-32.7c-0.2,0.9-0.5,3.4,0.3,5c2,4.1,4.1,4.1,6.1,7.1
	c2,11.2-3.9,23.1-5.9,24.7l0,0c3.5-0.8,6-2.1,7.2-2.8C107.5,89,107.8,88.5,107.8,88z"/>
<path fill="#E6AF78" d="M109,91.1l-9.1-3.8c-0.8-0.3-1.3-1.1-1.3-1.9V83H88.5v2.5c0,0.8-0.5,1.6-1.3,1.9l-9.1,3.8
	c-1.1,0.5-1.9,1.6-1.9,2.8V98c0,1.1,0.9,2,2,2h30.5c1.1,0,2-0.9,2-2v-4.1C110.8,92.7,110.1,91.5,109,91.1z"/>
<path fill="#EFF2FA" d="M109,91.1l-8.8-3.7l-6.6,2.9l-6.6-2.9l-8.8,3.7c-1.1,0.5-1.9,1.6-1.9,2.8V98c0,1.1,0.9,2,2,2h30.5
	c1.1,0,2-0.9,2-2v-4.1C110.8,92.7,110.1,91.5,109,91.1z"/>
<path fill="#D29B6E" d="M98.6,83H88.5v2.5c0,0.8-0.5,1.6-1.3,1.9l-1.4,0.6C96.6,90.6,98.6,83,98.6,83z"/>
<g>
	<path fill="#E4EAF6" d="M81.2,95l-4.1-3.2c-0.5,0.6-0.9,1.3-0.9,2.1V98c0,1.1,0.9,2,2,2h4.1v-2.6C82.4,96.5,81.9,95.6,81.2,95z"/>
	<path fill="#E4EAF6" d="M110.8,98v-4.1c0-0.8-0.3-1.6-0.9-2.1l-4.1,3.2c-0.7,0.6-1.1,1.5-1.1,2.4v2.6h4.1
		C109.9,100,110.8,99.1,110.8,98z"/>
	<path fill="#E4EAF6" d="M93.7,98h-0.3c-0.5,0-0.9-0.4-0.9-0.9v-6.8h2v6.8C94.6,97.6,94.2,98,93.7,98z"/>
	<path fill="#E4EAF6" d="M93.5,90.3l-5.8-4.4c-0.4-0.3-0.9-0.2-1.2,0.2l-1.2,1.7l3.6,5c0.3,0.4,0.8,0.5,1.2,0.2L93.5,90.3z"/>
	<path fill="#E4EAF6" d="M93.5,90.3l5.8-4.4c0.4-0.3,0.9-0.2,1.2,0.2l1.2,1.7l-3.6,5c-0.3,0.4-0.8,0.5-1.2,0.2L93.5,90.3z"/>
</g>
<path fill="#F0C087" d="M98.6,63.4c-5.1,5.1-15.1,1-15.1,9.2l0.6,6c0.1,1.3,0.9,2.5,2.1,3.2l5.8,3.2c0.9,0.5,2,0.5,3,0l5.8-3.2
	c1.2-0.7,2-1.8,2.1-3.2l0.7-7.1c0.1-0.5,0.1-1,0-1.5C103.3,67.3,99.7,65.4,98.6,63.4z"/>
<path fill="#E6AF78" d="M83.6,72.5l0.6,6c0.1,1.3,0.9,2.5,2.1,3.2l5.8,3.2c0.6,0.4,1.4,0.4,2.1,0.3l0,0c0,0-2.9-0.9-4.7-5.6
	c-0.5-1.4-1.3-9.1-0.6-10c1.3-1.8,8.3-2,10.3-5.5c-0.1-0.1-0.2-0.3-0.3-0.4c0,0,0,0,0,0c-0.1-0.1-0.2-0.3-0.2-0.4
	C93.5,68.4,83.6,64.4,83.6,72.5z"/>
<path fill="#E4EAF6" d="M101,98h-2.6c-1,0-1.7,0.8-1.7,1.7v0.3h6.1v-0.3C102.7,98.7,101.9,98,101,98z"/>
<g>
	<path fill="#C7CFE2" d="M74.3,54.6c0-0.4-0.4-0.7-0.8-0.7h-1.8c-0.6-2.8-1.7-5.4-3.2-7.8l1.3-1.3c0.3-0.3,0.3-0.8,0.1-1
		c-1.4-1.8-3-3.4-4.8-4.8c-0.3-0.2-0.8-0.2-1,0.1l-1.3,1.3c-2.3-1.6-4.9-2.7-7.8-3.2v-1.8c0-0.4-0.3-0.8-0.7-0.8
		c-1.1-0.1-2.2-0.2-3.4-0.2c-1.1,0-2.3,0.1-3.4,0.2c-0.4,0-0.7,0.4-0.7,0.8v1.8c-2.8,0.6-5.4,1.7-7.8,3.2l-1.3-1.3
		c-0.3-0.3-0.8-0.3-1-0.1c-1.8,1.4-3.4,3-4.8,4.8c-0.2,0.3-0.2,0.8,0.1,1l1.3,1.3c-1.6,2.4-2.7,5-3.2,7.8h-1.8
		c-0.4,0-0.8,0.3-0.8,0.7c-0.1,1.1-0.2,2.2-0.2,3.4c0,1.1,0.1,2.3,0.2,3.4c0,0.4,0.4,0.7,0.8,0.7H30c0.6,2.8,1.7,5.4,3.2,7.8
		L32,71.2c-0.3,0.3-0.3,0.8-0.1,1c1.4,1.8,3,3.4,4.8,4.8c0.3,0.2,0.8,0.2,1-0.1l1.3-1.3c2.3,1.6,4.9,2.7,7.8,3.2v1.8
		c0,0.4,0.3,0.8,0.7,0.8c1.1,0.1,2.2,0.2,3.4,0.2s2.3-0.1,3.4-0.2c0.4,0,0.7-0.4,0.7-0.8v-1.8c2.8-0.6,5.4-1.7,7.8-3.2l1.3,1.3
		c0.3,0.3,0.8,0.3,1,0.1c1.8-1.4,3.4-3,4.8-4.8c0.2-0.3,0.2-0.8-0.1-1l-1.3-1.3c1.6-2.3,2.7-4.9,3.2-7.8h1.8c0.4,0,0.8-0.3,0.8-0.7
		c0.1-1.1,0.2-2.2,0.2-3.4C74.5,56.8,74.5,55.7,74.3,54.6z M50.9,74.3c-9,0-16.3-7.3-16.3-16.3s7.3-16.3,16.3-16.3S67.2,49,67.2,58
		S59.9,74.3,50.9,74.3z"/>
	<path fill="#AFB9D2" d="M50.9,39.2c-10.4,0-18.8,8.4-18.8,18.8s8.4,18.8,18.8,18.8S69.7,68.4,69.7,58S61.2,39.2,50.9,39.2z
		 M50.9,74.3c-9,0-16.3-7.3-16.3-16.3s7.3-16.3,16.3-16.3S67.2,49,67.2,58S59.9,74.3,50.9,74.3z"/>
</g>
</svg>
