<?xml version="1.0" encoding="utf-8"?>
<!-- Generator: Adobe Illustrator 18.0.0, SVG Export Plug-In . SVG Version: 6.00 Build 0)  -->
<!DOCTYPE svg PUBLIC "-//W3C//DTD SVG 1.1//EN" "http://www.w3.org/Graphics/SVG/1.1/DTD/svg11.dtd">
<svg version="1.1" id="Layer_1" xmlns="http://www.w3.org/2000/svg" xmlns:xlink="http://www.w3.org/1999/xlink" x="0px" y="0px"
	 viewBox="0 8.4 100 82.9" enable-background="new 0 8.4 100 82.9" xml:space="preserve">
<polygon fill="#05365B" points="0,8.4 0,9.2 0,56.1 7.1,60.7 28.7,26.6 "/>
<polygon fill="#008C61" points="100,9.2 100,8.4 71.3,26.6 92.9,60.7 100,56.1 "/>
<g>
	<path fill="#E29D81" d="M81.5,67.6c6.1-3.9,7.7-12.3,3.5-18.7l-5.2-8.1c-4.2-6.5-12.4-8.5-18.5-4.7L42.9,47.8
		c-6.1,3.9-7.7,12.3-3.5,18.7l5.2,8.1c4.2,6.5,12.4,8.5,18.5,4.7L81.5,67.6z"/>
	<path fill="#E29D81" d="M79.2,69c2.3-1.5,2.9-4.5,1.5-6.8l0,0c-1.5-2.3-4.5-2.9-6.8-1.5L40,82.3c-2.3,1.5-2.9,4.5-1.5,6.8l0,0
		c1.5,2.3,4.5,2.9,6.8,1.5L79.2,69z"/>
</g>
<path fill="#D3856A" d="M39.5,66.5l5.2,8.1c4.2,6.5,12.4,8.5,18.5,4.7l18.4-11.6c6.1-3.9,7.7-12.3,3.5-18.7L80,40.8"/>
<g>
	<path fill="#E29D81" d="M58.2,61.1c2.3-1.5,2.9-4.5,1.5-6.8l0,0c-1.5-2.3-4.5-2.9-6.8-1.5L19,74.5c-2.3,1.5-2.9,4.5-1.5,6.8l0,0
		c1.5,2.3,4.5,2.9,6.8,1.5L58.2,61.1z"/>
	<path fill="#E29D81" d="M65.3,67.6c2.3-1.5,2.9-4.5,1.5-6.8l0,0c-1.5-2.3-4.5-2.9-6.8-1.5L26.1,81c-2.3,1.5-2.9,4.5-1.5,6.8l0,0
		c1.5,2.3,4.5,2.9,6.8,1.5L65.3,67.6z"/>
	<path fill="#E29D81" d="M58.1,50c2.3-1.5,2.9-4.5,1.5-6.8l0,0c-1.5-2.3-4.5-2.9-6.8-1.5L18.9,63.4c-2.3,1.5-2.9,4.5-1.5,6.8l0,0
		c1.5,2.3,4.5,2.9,6.8,1.5L58.1,50z"/>
	<path fill="#E29D81" d="M64.8,34.5c0,0-19,2.7-20.6,3.2c-1.5,0.5-6,11.5-0.8,12.7c5.3,1.3,13.7-5.5,13.7-5.5L64.8,34.5z"/>
</g>
<rect x="78.4" y="27.4" transform="matrix(-0.8439 0.5366 -0.5366 -0.8439 174.0357 38.9168)" fill="#FFFFFF" width="6" height="34.8"/>
<polyline fill="#DFE2E5" points="74.5,28.6 69.5,31.8 88.2,61.1 "/>
<polyline fill="#006D49" points="100,8.4 71.3,26.6 92.9,60.7 "/>
<path fill="#F9BDA0" d="M81,74.4l-3.1-1.9c1.8,0.2,3.7-0.6,4.7-2.3c1.5-2.3,0.8-5.3-1.5-6.8L58.5,49c1.6-3.4-1.6-10.6-2.7-11.1
	c-1.5-0.5-18.9-2.9-20.5-3.2c-5.5-1.6-11.8,0.8-15.2,6.1L15,48.9c-4.2,6.5-2.6,14.8,3.5,18.7l1.5,1c0.2,0.2,0.5,0.5,0.8,0.6
	l33.9,21.6c2.3,1.5,5.3,0.8,6.8-1.5c0.8-1.3,1-2.7,0.5-4l6.5,4.2c2.3,1.5,5.3,0.8,6.8-1.5c1.1-1.6,1-3.7,0-5.2l0.3,0.2
	c2.3,1.5,5.3,0.8,6.8-1.5C84,78.9,83.4,75.8,81,74.4z"/>
<g>
	<path fill="#FFE4C7" d="M56.3,88.9c-1-0.6-1.3-1.8-0.6-2.7l0.6-1.1c0.6-1,1.8-1.3,2.7-0.6l0,0c1,0.6,1.3,1.8,0.6,2.7L59,88.2
		C58.5,89.2,57.3,89.5,56.3,88.9L56.3,88.9z"/>
	<path fill="#FFE4C7" d="M77.3,81c-1-0.6-1.3-1.8-0.6-2.7l0.6-1.1c0.6-1,1.8-1.3,2.7-0.6l0,0c1,0.6,1.3,1.8,0.6,2.7L80,80.3
		C79.5,81.3,78.2,81.6,77.3,81L77.3,81z"/>
	<path fill="#FFE4C7" d="M70.2,87.4c-1-0.6-1.3-1.8-0.6-2.7l0.6-1.1c0.6-1,1.8-1.3,2.7-0.6l0,0c1,0.6,1.3,1.8,0.6,2.7l-0.6,1.1
		C72.3,87.8,71.1,88.1,70.2,87.4L70.2,87.4z"/>
	<path fill="#FFE4C7" d="M77.4,70c-1-0.6-1.3-1.8-0.6-2.7l0.6-1.1c0.6-1,1.8-1.3,2.7-0.6l0,0c1,0.6,1.3,1.8,0.6,2.7l-0.5,1.1
		C79.7,70.3,78.4,70.5,77.4,70L77.4,70z"/>
</g>
<rect x="15.6" y="27.4" transform="matrix(0.8439 0.5365 -0.5365 0.8439 26.9674 -2.9808)" fill="#FFFFFF" width="6" height="34.8"/>
<polyline fill="#DFE2E5" points="25.5,28.6 30.5,31.8 11.8,61.1 "/>
<polyline fill="#00263D" points="0,8.4 28.7,26.6 7.1,60.7 "/>
<path fill="#FFC114" d="M11.3,39.4c-1,1.6-3.1,1.9-4.5,1c-1.6-1-1.9-3.1-1-4.5c1-1.6,3.1-1.9,4.5-1S12.3,37.9,11.3,39.4z"/>
<path fill="#E8AB92" d="M81.1,63.2L58.5,48.9c1.6-3.4-1.6-10.6-2.7-11.1c-0.6-0.3-5.2-1-9.8-1.6l-5.2,16.1l42.4,13.5
	C82.9,64.9,82.3,63.9,81.1,63.2z"/>
<path fill="#E29D81" d="M59.7,38.9c1.5,2.4,2.1,8.7,0.2,9.8l-16.3,3.5c-1.9,1.1-4.5,0-6-2.3l0,0c-1.5-2.4-1-5.2,1-6.3L50.2,37
	c1.9-1.1,7.9-0.8,9.4,1.5L59.7,38.9z"/>
</svg>
