<?xml version="1.0" encoding="utf-8"?>
<!-- Generator: Adobe Illustrator 18.0.0, SVG Export Plug-In . SVG Version: 6.00 Build 0)  -->
<!DOCTYPE svg PUBLIC "-//W3C//DTD SVG 1.1//EN" "http://www.w3.org/Graphics/SVG/1.1/DTD/svg11.dtd">
<svg version="1.1" id="Layer_1" xmlns="http://www.w3.org/2000/svg" xmlns:xlink="http://www.w3.org/1999/xlink" x="0px" y="0px"
	 viewBox="0 0 100 100" enable-background="new 0 0 100 100" xml:space="preserve">
<path fill="#C7CFE2" d="M99.5,42.8c-0.1-0.8-0.9-1.5-1.7-1.5H94c-1.2-6-3.5-11.5-6.8-16.4l2.7-2.7c0.6-0.6,0.7-1.6,0.2-2.2
	c-2.9-3.8-6.3-7.2-10.1-10.1c-0.7-0.5-1.6-0.4-2.2,0.2L75,12.8C70.1,9.5,64.6,7.2,58.6,6V2.2c0-0.9-0.6-1.6-1.5-1.7
	C54.8,0.2,52.4,0,50,0s-4.8,0.2-7.2,0.5c-0.8,0.1-1.5,0.9-1.5,1.7V6c-6,1.2-11.5,3.5-16.4,6.8l-2.7-2.7c-0.6-0.6-1.6-0.7-2.2-0.2
	c-3.8,2.9-7.2,6.3-10.1,10.1c-0.5,0.7-0.4,1.6,0.2,2.2l2.7,2.7C9.5,29.9,7.2,35.4,6,41.4H2.2c-0.9,0-1.6,0.6-1.7,1.5
	C0.2,45.2,0,47.6,0,50s0.2,4.8,0.5,7.2c0.1,0.8,0.9,1.5,1.7,1.5H6c1.2,6,3.5,11.5,6.8,16.4l-2.7,2.7c-0.6,0.6-0.7,1.6-0.2,2.2
	c2.9,3.8,6.3,7.2,10.1,10.1c0.7,0.5,1.6,0.4,2.2-0.2l2.7-2.7c4.9,3.3,10.4,5.6,16.4,6.8v3.8c0,0.9,0.6,1.6,1.5,1.7
	c2.3,0.3,4.7,0.5,7.2,0.5s4.8-0.2,7.2-0.5c0.8-0.1,1.5-0.9,1.5-1.7V94c6-1.2,11.5-3.5,16.4-6.8l2.7,2.7c0.6,0.6,1.6,0.7,2.2,0.2
	c3.8-2.9,7.2-6.3,10.1-10.1c0.5-0.7,0.4-1.6-0.2-2.2L87.2,75c3.3-4.9,5.6-10.4,6.8-16.4h3.8c0.9,0,1.6-0.6,1.7-1.5
	c0.3-2.3,0.5-4.7,0.5-7.2S99.8,45.2,99.5,42.8z M50,84.5C31,84.5,15.5,69,15.5,50C15.5,31,31,15.5,50,15.5S84.5,31,84.5,50
	C84.5,69,69,84.5,50,84.5z"/>
<path fill="#AFB9D2" d="M50,10.3c-21.9,0-39.7,17.8-39.7,39.7c0,21.9,17.8,39.7,39.7,39.7S89.7,71.9,89.7,50
	C89.7,28.1,71.9,10.3,50,10.3z M50,84.5C31,84.5,15.5,69,15.5,50C15.5,31,31,15.5,50,15.5S84.5,31,84.5,50C84.5,69,69,84.5,50,84.5z
	"/>
</svg>
