<?xml version="1.0" encoding="utf-8"?>
<!-- Generator: Adobe Illustrator 18.0.0, SVG Export Plug-In . SVG Version: 6.00 Build 0)  -->
<!DOCTYPE svg PUBLIC "-//W3C//DTD SVG 1.1//EN" "http://www.w3.org/Graphics/SVG/1.1/DTD/svg11.dtd">
<svg version="1.1" id="Layer_1" xmlns="http://www.w3.org/2000/svg" xmlns:xlink="http://www.w3.org/1999/xlink" x="0px" y="0px"
	 viewBox="0 0 100 100" enable-background="new 0 0 100 100" xml:space="preserve">
<circle fill="#29B684" cx="50" cy="50" r="50"/>
<path fill="#29B684" d="M15.6,86.3c9,8.5,21,13.7,34.4,13.7s25.4-5.2,34.4-13.7H15.6z"/>
<ellipse fill="#F9B54C" cx="50" cy="47.4" rx="5.2" ry="8.9"/>
<path fill="#FF7058" d="M68.3,77.2c0.9-3.5,1.4-7.1,1.4-10.4c0-14-8.8-18.3-19.8-18.3c-10.9,0-19.8,4.3-19.8,18.3
	c0,3.3,0.5,6.9,1.4,10.4H68.3z"/>
<g>
	<path fill="#FFFFFF" d="M55.1,46.9c0,0-3,1.8-5.1,1.8l2.8,6l3.9-5.6L55.1,46.9z"/>
	<path fill="#FFFFFF" d="M44.9,46.9c0,0,3,1.8,5.1,1.8l-2.8,6l-3.9-5.6L44.9,46.9z"/>
</g>
<path fill="#324A5E" d="M64.4,21.9c0,8.3-6.5,20-14.4,20s-14.4-11.7-14.4-20S42,9.9,50,9.9S64.4,13.5,64.4,21.9z"/>
<path fill="#FFD05B" d="M60.7,30.2c0,8.5-4.8,15.4-10.7,15.4s-10.7-6.9-10.7-15.4c0-5,1.7-9.5,4.3-12.4c1.9,1.9,4.2,3.7,6.8,5.3
	c3.5,2.1,6.9,3.6,10.1,4.5C60.6,28.5,60.7,29.4,60.7,30.2z"/>
<path fill="#324A5E" d="M69.2,86.1H30.8c-1.3,0-2.5-0.6-2.7-1.5L23.3,61c-0.2-1.3,0.9-2.3,2.5-2.3h48.3c1.7,0,2.8,1,2.5,2.3
	l-4.8,23.6C71.7,85.4,70.6,86.1,69.2,86.1z"/>
<ellipse fill="#2B3B4E" cx="50" cy="71.3" rx="5.9" ry="2.5"/>
</svg>
