<?xml version="1.0" encoding="utf-8"?>
<!-- Generator: Adobe Illustrator 18.0.0, SVG Export Plug-In . SVG Version: 6.00 Build 0)  -->
<!DOCTYPE svg PUBLIC "-//W3C//DTD SVG 1.1//EN" "http://www.w3.org/Graphics/SVG/1.1/DTD/svg11.dtd">
<svg version="1.1" id="Layer_1" xmlns="http://www.w3.org/2000/svg" xmlns:xlink="http://www.w3.org/1999/xlink" x="0px" y="0px"
	 viewBox="9.6 10.8 80.8 89.2" enable-background="new 9.6 10.8 80.8 89.2" xml:space="preserve">
<path fill="#F0B97D" d="M45.3,38.2h1.9h5.6h1.9l0.8,7.9l1.3,1.1l2.8,1.8L50,71.6L40.4,49l2.8-1.8l1.3-1.1L45.3,38.2L45.3,38.2z"/>
<path fill="#15BDB1" d="M42.4,47.7l-13.7,4.4c0,0-1.3,0.7-2,2.7C22.6,59.1,9.6,73.4,9.6,77c0,4.3,11.1,14.6,11.1,14.6H26v3.7h24h24
	v-3.7h5.3c0,0,11.1-10.3,11.1-14.6c0-3.6-13.1-17.9-17.1-22.3c-0.7-2-2-2.7-2-2.7l-13.6-4.3l-1.2,3.4L50,50.8l-6.5,0.3L42.4,47.7
	L42.4,47.7z M26,72.7L26,72.7l1.7,6.8l-0.3,7.1L26,85l-4.9-7L26,72.7L26,72.7z M74,85L74,85l-1.4,1.5l-0.3-8.3l1.7-5.5l4.9,5.4
	L74,85z"/>
<path fill="#F1F1F1" d="M42.3,47.7l-1.8,0.6L50,71.6l9.7-23.2l-2-0.6l-4.8,3h-5.8L42.3,47.7L42.3,47.7z"/>
<path fill="#20D0C2" d="M42.4,47.7l-3,0.9l-0.6,7.5c0,0,0.2,0.6,0.6,0.6l2.7,1c0,0,0.2,0.2,0,0.4l-2.3,1.6l7.9,14.8
	c0.7,0,1.5,0.1,2.2,0.1s1.5,0,2.2-0.1L60,59.7l-2.3-1.6c-0.2-0.2,0-0.4,0-0.4l2.7-1c0.5,0.1,0.6-0.6,0.6-0.6l-0.6-7.5l-2.9-0.9
	L50,70.3L42.4,47.7L42.4,47.7z"/>
<path fill="#FED198" d="M60.9,22.2c0,0.7,0.3,1.4,0.2,2.1c2.5-0.5,1.3,7-0.1,8c-0.1,0.1-0.4-0.1-0.6-0.2c-0.5,2.7-4.7,10-7.3,13.1
	c-0.7,0.9-5.3,0.8-6,0c-2.7-3-6.9-10.4-7.4-13.1c-0.2,0.1-0.5,0.3-0.6,0.2c-1.4-1-2.6-8.4-0.1-8c0-0.7,0.2-1.4,0.2-2.1
	c0.1-5.8,5.4-8.6,10.9-8.7C55.5,13.6,60.7,16.5,60.9,22.2L60.9,22.2z"/>
<path fill="#666666" d="M57.5,14.8c0.8-0.1,3.6,0.8,4,3.8c0.3,3,0.2,5.8,0.2,5.8s-1.7,0.4-1.9,2.1s-0.1,1.7-0.1,1.7l-0.6-0.1
	l-0.4-2.9c-2.5-1.6,0-3.9-2.5-4.4c-6.7,4.8-12.7,4-15.4,1.7c0,0,0.6,2.4,0.1,3.2c-0.5,0.8-0.2,2.2-0.2,2.2h-0.6c0,0,0.1-3.5-1.3-3.5
	C33.6,15.6,50.3,4.8,57.5,14.8L57.5,14.8z"/>
<g>
	<path fill="#FFFFFF" d="M44.5,45c0.2,0-2.3,2.8-2.3,2.8l2.1,7.2l5.7-4.2C46.9,49.2,45,47.2,44.5,45L44.5,45z"/>
	<path fill="#FFFFFF" d="M55.5,45c-0.2,0,2.3,2.8,2.3,2.8L55.7,55L50,50.7C53.1,49.2,55,47.2,55.5,45L55.5,45z"/>
</g>
<path fill="#ECF0F1" d="M25.5,87.5c3.2,0,5.8,1.6,5.8,3.6s-2.6,3.6-5.8,3.6s-5.8-1.6-5.8-3.6S22.3,87.5,25.5,87.5z M25.5,88.4
	L25.5,88.4C23,88.4,21,89.6,21,91c0,1.5,2,2.6,4.5,2.6S30,92.4,30,91S28,88.4,25.5,88.4z"/>
<path fill="#377BB9" d="M25.5,93.7c2.5,0,4.5-1.2,4.5-2.6c0-1.5-2-2.6-4.5-2.6S21,89.6,21,91.1C21,92.5,23,93.7,25.5,93.7z"/>
<path fill="#FBB429" d="M23.7,92.6v2.9c0,0.4-0.3,0.7-0.7,0.7h-1.1c-0.4,0-0.7-0.3-0.7-0.7V91c0-0.1,0-0.1,0-0.2v-1
	c0-0.8,0.7-1.5,1.5-1.5h9.4c0.8,0,1.5,0.7,1.5,1.5v1c0,0.1,0,0.1,0,0.2v4.5c0,0.4-0.3,0.7-0.7,0.7h-1.1c-0.4,0-0.7-0.3-0.7-0.7v-2.9
	h-0.9v2.9c0,0.4-0.3,0.7-0.7,0.7h-1.1c-0.4,0-0.7-0.3-0.7-0.7v-2.9H27v2.9c0,0.4-0.3,0.7-0.7,0.7h-1.1c-0.4,0-0.7-0.3-0.7-0.7v-2.9
	H23.7L23.7,92.6z"/>
<path fill="#ECF0F1" d="M74.5,87.5c-3.2,0-5.8,1.6-5.8,3.6s2.6,3.6,5.8,3.6c3.2,0,5.8-1.6,5.8-3.6S77.7,87.5,74.5,87.5z M74.5,88.4
	L74.5,88.4c2.5,0,4.5,1.2,4.5,2.6c0,1.5-2,2.6-4.5,2.6S70,92.4,70,91S72,88.4,74.5,88.4z"/>
<path fill="#333333" d="M74.5,93.7c2.5,0,4.5-1.2,4.5-2.6c0-1.5-2-2.6-4.5-2.6S70,89.7,70,91.1S72,93.7,74.5,93.7z"/>
<path fill="#FBB429" d="M76.3,92.6v2.9c0,0.4,0.3,0.7,0.7,0.7h1.1c0.4,0,0.7-0.3,0.7-0.7V91c0-0.1,0-0.1,0-0.2v-1
	c0-0.8-0.7-1.5-1.5-1.5h-9.4c-0.8,0-1.5,0.7-1.5,1.5v1c0,0.1,0,0.1,0,0.2v4.5c0,0.4,0.3,0.7,0.7,0.7h1.1c0.4,0,0.7-0.3,0.7-0.7v-2.9
	h0.9v2.9c0,0.4,0.3,0.7,0.7,0.7h1.1c0.4,0,0.7-0.3,0.7-0.7v-2.9H73v2.9c0,0.4,0.3,0.7,0.7,0.7h1.1c0.4,0,0.7-0.3,0.7-0.7v-2.9H76.3
	L76.3,92.6z"/>
<path fill="#FFFFFF" d="M24.2,59.6h51.5c1.6,0,3,1.3,3,3v28.5c0,1.6-1.3,3-3,3H24.2c-1.6,0-3-1.3-3-3V62.6
	C21.2,61,22.6,59.6,24.2,59.6z"/>
<path fill="#C8CACC" d="M22.4,95.5h55.2c0.6,0,1.1,0.5,1.1,1.1v2.2c0,0.6-0.5,1.1-1.1,1.1H22.4c-0.6,0-1.1-0.5-1.1-1.1v-2.2
	C21.2,96,21.8,95.5,22.4,95.5z"/>
<g>
	<path fill="#ECF0F1" d="M29.7,93.4h4.9v3.3h-4.9C29.7,96.7,29.7,93.4,29.7,93.4z M65.4,93.4L65.4,93.4h4.9v3.3h-4.9V93.4z"/>
	<path fill="#ECF0F1" d="M44.6,72.5h10.8c0.1,0,0.3,0.1,0.3,0.3v2.5c0,0.1-0.1,0.3-0.3,0.3H44.6c-0.1,0-0.3-0.1-0.3-0.3v-2.5
		C44.3,72.6,44.4,72.5,44.6,72.5z"/>
</g>
</svg>
